# AST/ASF file generated using VICON BodyLanguage
# -----------------------------------------------
:version 1.10
:name VICON
:units
  mass 1.0
  length 0.45
  angle deg
:documentation
   .ast/.asf automatically generated from VICON data using
   VICON BodyBuilder and BodyLanguage model FoxedUp or BRILLIANT.MOD
:root
   order TX TY TZ RX RY RZ
   axis XYZ
   position 0 0 0  
   orientation 0 0 0 
:bonedata
  begin
     id 1 
     name lhipjoint
     direction 0.682418 -0.694059 0.22932 
     length 2.25561 
     axis 0 0 0  XYZ
  end
  begin
     id 2 
     name lfemur
     direction 0.34202 -0.939693 0  
     length 6.96448  
     axis 0 0 20  XYZ
    dof rx ry rz
    limits (-160.0 20.0)
           (-70.0 70.0)
           (-60.0 70.0)
  end
  begin
     id 3 
     name ltibia
     direction 0.34202 -0.939693 0   
     length 6.88553   
     axis 0 0 20   XYZ
    dof rx
    limits (-10.0 170.0)
  end
  begin
     id 4 
     name lfoot
     direction 0.0723587 -0.198804 0.977364   
     length 1.88518   
     axis -90 7.62852e-016 20   XYZ
    dof rx rz
    limits (-45.0 90.0)
           (-70.0 20.0)
  end
  begin
     id 5 
     name ltoes
     direction 1.53558e-011 -4.21962e-011 1   
     length 0.952124   
     axis -90 7.62852e-016 20   XYZ
    dof rx
    limits (-90.0 20.0)
  end
  begin
     id 6 
     name rhipjoint
     direction -0.657603 -0.71533 0.236348   
     length 2.18854  
     axis 0 0 0  XYZ 
  end
  begin
     id 7 
     name rfemur
     direction -0.34202 -0.939693 0   
     length 6.86686   
     axis 0 0 -20   XYZ
    dof rx ry rz
    limits (-160.0 20.0)
           (-70.0 70.0)
           (-70.0 60.0)
  end
  begin
     id 8 
     name rtibia
     direction -0.34202 -0.939693 0   
     length 6.59503   
     axis 0 0 -20   XYZ
    dof rx
    limits (-10.0 170.0)
 end
 begin
     id 9 
     name rfoot
     direction -0.101977 -0.280179 0.954516   
     length 1.93723  
     axis -90 -7.62852e-016 -20   XYZ
    dof rx rz
    limits (-45.0 90.0)
           (-20.0 70.0)
  end
  begin
     id 10 
     name rtoes
     direction -1.53564e-011 -4.21897e-011 1   
     length 0.970315   
     axis -90 -7.62852e-016 -20   XYZ
    dof rx
    limits (-90.0 20.0)
  end
  begin
     id 11 
     name lowerback
     direction -0.0339559 0.999421 -0.00235966   
     length 1.88543   
     axis 0 0 0   XYZ
    dof rx ry rz
    limits (-20.0 45.0)
           (-30.0 30.0)
           (-30.0 30.0)
  end
  begin
     id 12 
     name upperback
     direction 0.00401003 0.999739 0.0224689   
     length 1.8856   
     axis 0 0 0   XYZ
    dof rx ry rz
    limits (-20.0 45.0)
           (-30.0 30.0)
           (-30.0 30.0)
  end
  begin
     id 13 
     name thorax
     direction 0.0198619 0.999546 0.0226536   
     length 1.88352   
     axis 0 0 0   XYZ
    dof rx ry rz
    limits (-20.0 45.0)
           (-30.0 30.0)
           (-30.0 30.0)
  end
  begin
     id 14 
     name lowerneck
     direction -0.0461848 0.998632 0.0245198   
     length 1.34895   
     axis 0 0 0   XYZ
    dof rx ry rz
    limits (-20.0 45.0)
           (-30.0 30.0)
           (-30.0 30.0)
  end
  begin
     id 15 
     name upperneck
     direction -0.0180627 0.994724 -0.100984   
     length 1.35214   
     axis 0 0 0   XYZ
    dof rx ry rz
    limits (-20.0 45.0)
           (-30.0 30.0)
           (-30.0 30.0)
  end
  begin
     id 16
     name head
     direction -0.00374772 0.999293 -0.037403  
     length 1.3568  
     axis 0 0 0   XYZ
    dof rx ry rz
    limits (-20.0 45.0)
           (-30.0 30.0)
           (-30.0 30.0)
  end
  begin
     id 17 
     name lclavicle
     direction 0.971773 0.191119 0.138311  
     length 2.84954  
     axis 0 0 0   XYZ
    dof ry rz
    limits (-20.0 10.0)
           (0.0 20.0)
  end
  begin
     id 18 
     name lhumerus
     direction 1 -4.4897e-011 -2.43761e-027   
     length 4.40919   
     axis 180 -30 -90   XYZ
    dof rx ry rz
    limits (-60.0 90.0)
           (-90.0 90.0)
           (-90.0 90.0)
  end
  begin
     id 19
     name lradius
     direction 1 -4.4896e-011 -9.1621e-027   
     length 3.03857   
     axis 180 -30 -90   XYZ
    dof rx
    limits (-10.0 170.0)
  end
  begin
     id 20
     name lwrist
     direction 1 -4.4896e-011 -1.41363e-026   
     length 1.51928   
     axis 1.07133e-014 90 90   XYZ
    dof ry
    limits (-180.0 0.0)
 end
  begin
     id 21 
     name lhand
     direction 1 -4.48978e-011 -2.82725e-026   
     length 0.523208   
     axis 1.80403e-014 90 90   XYZ
    dof rx rz
    limits (-90.0 90.0)
           (-45.0 45.0)
  end
  begin
     id 22 
     name lfingers
     direction 1 -4.48977e-011 -5.6545e-026   
     length 0.421824   
     axis 3.60806e-014 90 90   XYZ
    dof rx
    limits (0.0 90.0)
  end
  begin
     id 23
     name lthumb
     direction 0.707107 -6.34962e-011 0.707107   
     length 0.605657   
     axis -90 45 2.85299e-015   XYZ
    dof rx rz
    limits (-45.0 45.0)
           (-45.0 45.0)
  end
  begin
     id 24 
     name rclavicle
     direction -0.957247 0.24311 0.156766   
     length 3.12406  
     axis 0 0 0   XYZ 
    dof ry rz
    limits (-10.0 20.0)
           (-20.0 0.0)
  end
  begin
     id 25 
     name rhumerus
     direction -1 -4.48964e-011 -1.70632e-027  
     length 4.61969   
     axis 180 30 90   XYZ
    dof rx ry rz
    limits (-90.0 60.0)
           (-90.0 90.0)
           (-90.0 90.0)
  end
  begin
     id 26 
     name rradius
     direction -1 -4.48966e-011 -6.60395e-027   
     length 3.09382   
     axis 180 30 90   XYZ
    dof rx
    limits (-10.0 170.0)
  end
  begin
     id 27 
     name rwrist
     direction -1 -4.48963e-011 -1.41363e-026   
     length 1.54691   
     axis 1.07133e-014 -90 -90   XYZ
    dof ry
    limits (-180.0 0.0)
  end
  begin
     id 28
     name rhand
     direction -1 -4.49013e-011 -2.82725e-026   
     length 0.500896   
     axis 1.80403e-014 -90 -90   XYZ
    dof rx rz
    limits (-90.0 90.0)
           (-45.0 45.0)
  end
  begin
     id 29
     name rfingers
     direction -1 -4.48902e-011 -5.6545e-026   
     length 0.403835   
     axis 3.60806e-014 -90 -90   XYZ
    dof rx
    limits (0.0 90.0)
  end
  begin
     id 30
     name rthumb
     direction -0.707107 -6.34953e-011 0.707107   
     length 0.579829   
     axis -90 -45 -2.85299e-015   XYZ
    dof rx rz
    limits (-45.0 45.0)
           (-45.0 45.0)
  end
:hierarchy
  begin
    root lhipjoint rhipjoint lowerback
    lhipjoint lfemur
    lfemur ltibia
    ltibia lfoot
    lfoot ltoes
    rhipjoint rfemur
    rfemur rtibia
    rtibia rfoot
    rfoot rtoes
    lowerback upperback
    upperback thorax
    thorax lowerneck lclavicle rclavicle
    lowerneck upperneck
    upperneck head
    lclavicle lhumerus
    lhumerus lradius
    lradius lwrist
    lwrist lhand lthumb
    lhand lfingers
    rclavicle rhumerus
    rhumerus rradius
    rradius rwrist
    rwrist rhand rthumb
    rhand rfingers
  end

#!OML:ASF E:\madness\Project 1\Capture day 1\Session 1\Female1.ASF
:FULLY-SPECIFIED
:DEGREES
169
root 16.0114 16.3174 -3.14011 -172.619 -69.1738 182.495
lowerback 13.5082 5.38703 -9.16699
upperback 1.77056 5.05727 -5.44266
thorax -5.9985 2.45944 -1.59575
lowerneck -0.337822 14.1879 6.08748
upperneck 19.2818 20.1038 -10.3063
head 7.6888 9.11632 -2.75996
rclavicle -1.90833e-014 5.88403e-014
rhumerus -42.145 -33.9301 6.12263
rradius 116.042
rwrist -22.618
rhand 1.49502 -43.2795
rfingers 7.12502
rthumb 27.0216 -71.3666
lclavicle -1.90833e-014 5.88403e-014
lhumerus -42.7133 10.9578 26.6942
lradius 115.418
lwrist 4.80219
lhand -24.7068 -10.3589
lfingers 7.12502
lthumb 1.79478 19.6133
rfemur -14.9271 9.36662 24.6066
rtibia 13.1216
rfoot -5.06861 -0.511084
rtoes 9.94406
lfemur -70.255 -20.3583 9.55422
ltibia 94.684
lfoot 0.9939 -4.06813
ltoes -3.30252
170
root 16.0431 16.3257 -3.13973 -172.428 -69.5443 182.291
lowerback 13.7693 5.30238 -9.06204
upperback 1.8216 4.93598 -5.37659
thorax -6.07883 2.39986 -1.57749
lowerneck 0.207782 13.9707 6.32279
upperneck 18.8792 19.8193 -10.6382
head 7.49329 9.01452 -2.97534
rclavicle -8.98507e-014 -2.70347e-014
rhumerus -42.2307 -34.0088 6.06045
rradius 116.163
rwrist -22.8173
rhand 4.05276 -41.3409
rfingers 7.12502
rthumb 29.4661 -69.0235
lclavicle -8.98507e-014 -2.70347e-014
lhumerus -41.8404 10.965 26.1319
lradius 115.066
lwrist 5.34432
lhand -24.7883 -9.88312
lfingers 7.12502
lthumb 1.71606 20.0897
rfemur -14.9178 9.06641 24.5686
rtibia 12.8996
rfoot -4.9873 -0.560681
rtoes 11.0769
lfemur -71.1448 -20.2846 9.55042
ltibia 95.3123
lfoot 0.876113 -4.797
ltoes -2.57776
171
root 16.0729 16.3352 -3.14114 -172.216 -69.8791 182.109
lowerback 13.9352 5.27508 -8.95038
upperback 1.98732 4.91001 -5.31484
thorax -5.98647 2.37938 -1.5702
lowerneck 0.629568 13.7452 6.69338
upperneck 18.5446 19.5374 -11.0198
head 7.35973 8.91303 -3.21181
rclavicle -2.14687e-014 -3.02153e-014
rhumerus -42.6554 -34.0588 6.21662
rradius 116.375
rwrist -22.9115
rhand 3.85079 -42.2821
rfingers 7.12502
rthumb 29.2732 -69.9985
lclavicle -2.14687e-014 -3.02153e-014
lhumerus -40.6709 11.0068 25.7604
lradius 114.744
lwrist 5.75685
lhand -24.8618 -9.47785
lfingers 7.12502
lthumb 1.64501 20.4956
rfemur -14.9712 8.7324 24.5507
rtibia 12.7178
rfoot -4.84544 -0.563713
rtoes 11.1826
lfemur -71.9028 -20.1655 9.46279
ltibia 95.8504
lfoot 0.643017 -5.55866
ltoes -0.686258
172
root 16.1119 16.3405 -3.13963 -172.014 -70.3021 181.948
lowerback 14.2568 5.18785 -8.95398
upperback 2.14808 4.77577 -5.14425
thorax -5.99917 2.31246 -1.37625
lowerneck 0.00490895 13.7599 6.35691
upperneck 18.8223 19.5713 -10.8445
head 7.51012 8.88507 -3.05586
rclavicle 5.56597e-015 -2.54444e-014
rhumerus -42.7287 -34.3609 6.15576
rradius 116.461
rwrist -23.0782
rhand 3.95201 -42.8097
rfingers 7.12502
rthumb 29.3699 -70.5093
lclavicle 5.56597e-015 -2.54444e-014
lhumerus -39.6601 11.1755 25.3645
lradius 114.438
lwrist 6.09275
lhand -25.1917 -9.15131
lfingers 7.12502
lthumb 1.32642 20.8243
rfemur -15.0771 8.50269 24.5353
rtibia 12.5151
rfoot -4.71158 -0.82217
rtoes 10.4122
lfemur -72.6643 -19.9927 9.32316
ltibia 96.3136
lfoot 0.250119 -6.28787
ltoes -0.0494118
173
root 16.1498 16.3428 -3.13556 -171.883 -70.6264 181.863
lowerback 14.4749 5.10119 -9.0209
upperback 2.33959 4.65217 -4.9325
thorax -5.92962 2.25024 -1.09461
lowerneck -0.718821 13.8752 5.91219
upperneck 19.4016 19.7586 -10.6
head 7.77544 8.9047 -2.83427
rclavicle -1.98785e-014 -2.06736e-014
rhumerus -42.4466 -35.1253 5.74215
rradius 116.274
rwrist -23.19
rhand 3.90463 -42.652
rfingers 7.12502
rthumb 29.3246 -70.3594
lclavicle -1.98785e-014 -2.06736e-014
lhumerus -38.8768 11.491 24.9408
lradius 114.243
lwrist 6.49322
lhand -25.9109 -8.8686
lfingers 7.12502
lthumb 0.631816 21.1102
rfemur -15.1875 8.42933 24.5123
rtibia 12.338
rfoot -4.48569 -1.08063
rtoes 10.3064
lfemur -73.2992 -19.6391 9.04237
ltibia 96.7267
lfoot -0.157757 -6.96444
ltoes -0.98903
174
root 16.1826 16.3466 -3.13365 -171.565 -70.8245 181.594
lowerback 14.631 5.09389 -9.17117
upperback 2.47177 4.62032 -4.75451
thorax -5.89756 2.23533 -0.821666
lowerneck -1.15948 13.8259 5.54225
upperneck 19.4621 19.6941 -10.4071
head 7.80771 8.84809 -2.69677
rclavicle -6.20208e-014 1.59028e-015
rhumerus -43.0659 -34.5058 5.87015
rradius 116.582
rwrist -23.7844
rhand 2.1942 -42.7808
rfingers 7.12502
rthumb 27.6903 -70.7623
lclavicle -6.20208e-014 1.59028e-015
lhumerus -38.0333 11.6652 24.6079
lradius 114.018
lwrist 6.80818
lhand -26.4376 -8.7741
lfingers 7.12502
lthumb 0.123121 21.2056
rfemur -15.3282 8.4314 24.4051
rtibia 12.2501
rfoot -4.30122 -1.30765
rtoes 10.7408
lfemur -73.7673 -19.1748 8.50952
ltibia 97.1079
lfoot -0.511376 -7.66325
ltoes -1.76186
175
root 16.2165 16.3535 -3.13027 -171.199 -71.1866 181.227
lowerback 14.9852 5.02508 -9.22365
upperback 2.48501 4.48883 -4.5973
thorax -6.08618 2.17881 -0.625454
lowerneck -1.24537 13.7462 5.37481
upperneck 19.4106 19.5847 -10.3405
head 7.77114 8.79207 -2.66014
rclavicle -4.37326e-014 3.97569e-014
rhumerus -43.2092 -34.6388 5.7279
rradius 116.586
rwrist -23.8105
rhand 4.83928 -41.802
rfingers 7.12502
rthumb 30.2167 -69.3499
lclavicle -4.37326e-014 3.97569e-014
lhumerus -37.2194 11.5851 24.2543
lradius 113.755
lwrist 6.84377
lhand -26.6418 -8.6019
lfingers 7.12502
lthumb -0.0741434 21.3778
rfemur -15.4583 8.33984 24.2883
rtibia 12.2594
rfoot -4.29105 -1.66556
rtoes 10.7855
lfemur -74.2036 -18.9352 7.93539
ltibia 97.4607
lfoot -0.901395 -8.30752
ltoes -2.36484
176
root 16.2504 16.3584 -3.12233 -171.081 -71.7009 181.094
lowerback 15.4094 4.84829 -9.10058
upperback 2.52558 4.24106 -4.41773
thorax -6.26364 2.06291 -0.476733
lowerneck -0.82904 13.6245 5.3856
upperneck 19.0116 19.434 -10.6453
head 7.58529 8.73621 -2.81128
rclavicle 1.90833e-014 -1.59028e-015
rhumerus -43.2109 -34.6802 5.39472
rradius 116.541
rwrist -23.8213
rhand 3.19407 -42.9474
rfingers 7.12502
rthumb 28.646 -70.7714
lclavicle 1.90833e-014 -1.59028e-015
lhumerus -36.487 11.5734 23.8637
lradius 113.478
lwrist 6.63766
lhand -26.7988 -8.43499
lfingers 7.12502
lthumb -0.225793 21.5446
rfemur -15.5599 8.15022 24.2672
rtibia 12.3087
rfoot -4.32041 -2.02091
rtoes 10.7568
lfemur -74.6827 -18.8547 7.50356
ltibia 97.7929
lfoot -0.985359 -8.78095
ltoes -1.03
177
root 16.2838 16.3567 -3.11203 -171.005 -72.1305 181.094
lowerback 15.7463 4.73246 -8.95766
upperback 2.61056 4.09264 -4.23154
thorax -6.34987 1.99152 -0.342716
lowerneck -0.904698 13.5214 5.28793
upperneck 18.9732 19.327 -10.8052
head 7.58282 8.66726 -2.85426
rclavicle -3.26007e-014 -5.56597e-014
rhumerus -43.4436 -34.8414 5.25996
rradius 116.486
rwrist -23.8452
rhand 2.85171 -42.9249
rfingers 7.12502
rthumb 28.3188 -70.8037
lclavicle -3.26007e-014 -5.56597e-014
lhumerus -35.552 11.6258 23.6647
lradius 113.118
lwrist 6.36585
lhand -27.0747 -8.17226
lfingers 7.12502
lthumb -0.492284 21.8069
rfemur -15.7678 7.91781 24.2818
rtibia 12.3676
rfoot -4.30934 -2.22596
rtoes 11.0959
lfemur -75.1896 -18.6117 7.10533
ltibia 98.1283
lfoot -0.903496 -9.23886
ltoes 0.453637
178
root 16.3173 16.3576 -3.09999 -170.84 -72.525 181.057
lowerback 16.0334 4.66572 -8.78844
upperback 2.64641 4.01671 -4.07502
thorax -6.46224 1.9568 -0.269512
lowerneck -0.770412 13.3214 5.45572
upperneck 18.8907 19.0988 -11.1534
head 7.56317 8.55404 -3.02185
rclavicle -1.98785e-014 2.8625e-014
rhumerus -43.8479 -35.0181 5.41335
rradius 116.368
rwrist -23.8445
rhand 3.52228 -42.6254
rfingers 7.12502
rthumb 28.9595 -70.3961
lclavicle -1.98785e-014 2.8625e-014
lhumerus -34.6919 11.472 23.5564
lradius 112.994
lwrist 6.25407
lhand -27.4537 -7.69726
lfingers 7.12502
lthumb -0.858297 22.2808
rfemur -16.1067 7.53924 24.2971
rtibia 12.4868
rfoot -4.29833 -2.28199
rtoes 11.5255
lfemur -75.6514 -18.3976 6.69204
ltibia 98.423
lfoot -1.10646 -9.59455
ltoes -0.148321
179
root 16.3517 16.3612 -3.0859 -170.674 -72.8635 180.994
lowerback 16.3567 4.61462 -8.61089
upperback 2.63282 3.95713 -3.92247
thorax -6.64803 1.93284 -0.213651
lowerneck -0.4831 13.1204 5.54716
upperneck 18.7433 18.8481 -11.4143
head 7.47547 8.441 -3.16664
rclavicle -3.97569e-016 7.95139e-015
rhumerus -44.0906 -35.0336 5.4888
rradius 116.2
rwrist -23.9815
rhand 3.81377 -42.611
rfingers 7.12502
rthumb 29.2379 -70.3336
lclavicle -3.97569e-016 7.95139e-015
lhumerus -34.0659 11.2083 23.3677
lradius 113.008
lwrist 6.27753
lhand -27.4359 -7.82464
lfingers 7.12502
lthumb -0.841098 22.1534
rfemur -16.4759 7.16533 24.2905
rtibia 12.6643
rfoot -4.27894 -2.31524
rtoes 11.4687
lfemur -76.0236 -18.2229 6.19038
ltibia 98.73
lfoot -1.48559 -9.83334
ltoes -1.37305
180
root 16.387 16.3601 -3.069 -170.453 -73.1824 180.914
lowerback 16.7281 4.60007 -8.38217
upperback 2.63175 3.94745 -3.79376
thorax -6.84446 1.93024 -0.225366
lowerneck -0.52565 12.9377 5.30023
upperneck 18.7114 18.5769 -11.2101
head 7.40143 8.31369 -3.09489
rclavicle 2.26615e-014 -2.54444e-014
rhumerus -44.4587 -34.9087 5.47333
rradius 116.116
rwrist -24.415
rhand 3.19646 -42.8391
rfingers 7.12502
rthumb 28.6483 -70.6628
lclavicle 2.26615e-014 -2.54444e-014
lhumerus -33.3063 10.9291 23.2115
lradius 112.942
lwrist 6.24382
lhand -27.3528 -8.1938
lfingers 7.12502
lthumb -0.76082 21.7846
rfemur -16.8484 6.87906 24.2405
rtibia 12.8048
rfoot -4.27945 -2.39954
rtoes 11.0807
lfemur -76.4399 -17.9945 5.65807
ltibia 99.0697
lfoot -1.66455 -9.9716
ltoes -1.23924
181
root 16.4186 16.3592 -3.05136 -170.035 -73.5947 180.718
lowerback 16.9016 4.5332 -8.15224
upperback 2.74676 3.89665 -3.69327
thorax -6.80246 1.89862 -0.237642
lowerneck -0.887714 12.7517 5.08618
upperneck 18.6456 18.3207 -11.0732
head 7.38452 8.18297 -3.02381
rclavicle -8.11041e-014 8.11041e-014
rhumerus -44.8925 -35.0259 5.37206
rradius 115.958
rwrist -24.6749
rhand 2.45158 -43.2504
rfingers 7.12502
rthumb 27.9364 -71.1921
lclavicle -8.11041e-014 8.11041e-014
lhumerus -32.5594 10.7431 23.0479
lradius 113.038
lwrist 6.29287
lhand -27.6816 -8.03688
lfingers 7.12502
lthumb -1.0784 21.9401
rfemur -17.2809 6.55019 24.1517
rtibia 12.9433
rfoot -4.37859 -2.51342
rtoes 10.5284
lfemur -76.9402 -17.874 5.19979
ltibia 99.37
lfoot -1.68981 -10.1489
ltoes -0.858883
182
root 16.4525 16.3597 -3.03459 -169.665 -73.9661 180.561
lowerback 16.937 4.47041 -7.99221
upperback 2.97292 3.86167 -3.55308
thorax -6.57336 1.86946 -0.157546
lowerneck -1.27813 12.5365 5.17899
upperneck 18.488 18.0927 -11.456
head 7.4254 8.05074 -3.1549
rclavicle -2.78299e-014 7.07673e-014
rhumerus -45.1744 -35.4909 5.30025
rradius 115.557
rwrist -24.5434
rhand 1.7667 -44.0213
rfingers 7.12502
rthumb 27.2814 -72.0678
lclavicle -2.78299e-014 7.07673e-014
lhumerus -31.7871 10.7864 22.9454
lradius 113.128
lwrist 6.40989
lhand -27.9752 -8.01504
lfingers 7.12502
lthumb -1.36199 21.9604
rfemur -17.7575 6.26297 24.0824
rtibia 13.1569
rfoot -4.46235 -2.6179
rtoes 10.2758
lfemur -77.3792 -17.7207 4.74069
ltibia 99.6879
lfoot -1.88075 -10.4449
ltoes -1.75761
